<svg width="424" height="76" viewBox="0 0 424 76" fill="none" xmlns="http://www.w3.org/2000/svg">
<path d="M85.5156 34.4258L87.8276 22.5258H89.8081L92.5706 29.8103L95.3416 22.5258H97.3221L99.6341 34.4258H97.2371L95.9196 27.6003L93.3781 34.3068H91.7631L89.2301 27.6003L87.9041 34.4258H85.5156ZM105.716 34.6468C104.764 34.6468 103.926 34.4144 103.2 33.9498C102.481 33.4851 101.917 32.8618 101.509 32.0798C101.106 31.2921 100.905 30.4194 100.905 29.4618V22.5258H103.251V29.4618C103.251 29.9774 103.348 30.4506 103.54 30.8813C103.733 31.3119 104.013 31.6576 104.382 31.9183C104.75 32.1733 105.195 32.3008 105.716 32.3008C106.243 32.3008 106.688 32.1733 107.051 31.9183C107.419 31.6633 107.697 31.3204 107.884 30.8898C108.071 30.4591 108.164 29.9831 108.164 29.4618V22.5258H110.51V29.4618C110.51 30.1814 110.394 30.8558 110.162 31.4848C109.935 32.1081 109.609 32.6578 109.184 33.1338C108.759 33.6098 108.252 33.9809 107.663 34.2473C107.079 34.5136 106.43 34.6468 105.716 34.6468ZM112.311 34.4258L114.623 22.5258H116.603L119.366 29.8103L122.137 22.5258H124.117L126.429 34.4258H124.032L122.715 27.6003L120.173 34.3068H118.558L116.025 27.6003L114.699 34.4258H112.311ZM128.132 34.4258V22.5258H132.56C133.201 22.5258 133.781 22.6589 134.303 22.9253C134.824 23.1859 135.235 23.5599 135.535 24.0473C135.841 24.5346 135.994 25.1069 135.994 25.7643C135.994 26.0306 135.957 26.3054 135.884 26.5888C135.816 26.8721 135.697 27.1328 135.527 27.3708C135.362 27.6088 135.136 27.7901 134.847 27.9148C135.221 28.0054 135.521 28.1754 135.748 28.4248C135.974 28.6684 136.147 28.9518 136.266 29.2748C136.385 29.5921 136.465 29.9179 136.504 30.2523C136.544 30.5866 136.564 30.8898 136.564 31.1618C136.564 31.7738 136.405 32.3263 136.088 32.8193C135.77 33.3123 135.343 33.7033 134.804 33.9923C134.272 34.2813 133.682 34.4258 133.036 34.4258H128.132ZM130.478 32.4283H132.79C133.101 32.4283 133.385 32.3546 133.64 32.2073C133.895 32.0543 134.099 31.8474 134.252 31.5868C134.405 31.3204 134.481 31.0201 134.481 30.6858C134.481 30.4024 134.405 30.1333 134.252 29.8783C134.099 29.6233 133.895 29.4164 133.64 29.2578C133.385 29.0934 133.101 29.0113 132.79 29.0113H130.478V32.4283ZM130.478 27.0563H132.288C132.662 27.0563 132.982 26.9344 133.249 26.6908C133.515 26.4471 133.648 26.1326 133.648 25.7473C133.648 25.3506 133.515 25.0503 133.249 24.8463C132.982 24.6366 132.662 24.5318 132.288 24.5318H130.478V27.0563ZM141.44 22.5258H144.109L148.427 34.4258H145.936L145.222 32.4538H140.326L139.612 34.4258H137.122L141.44 22.5258ZM141.185 30.1078H144.364L142.766 25.7473L141.185 30.1078ZM150.068 34.4258V22.5258H152.414V34.4258H150.068ZM158.795 34.4258L161.107 22.5258H163.087L165.85 29.8103L168.621 22.5258H170.601L172.913 34.4258H170.516L169.199 27.6003L166.657 34.3068H165.042L162.509 27.6003L161.183 34.4258H158.795ZM174.616 34.4258V22.5258H182.147V24.8718H176.962V26.8778H181.008V29.2238H176.962V32.0798H182.147V34.4258H174.616ZM193.023 22.5258V24.8718H189.521V34.4258H187.175V24.8718H183.673V22.5258H193.023ZM194.721 34.4258V22.5258H199.447C200.093 22.5258 200.676 22.6901 201.198 23.0188C201.725 23.3418 202.141 23.7781 202.447 24.3278C202.759 24.8718 202.915 25.4753 202.915 26.1383C202.915 26.6596 202.824 27.1441 202.643 27.5918C202.461 28.0338 202.206 28.4219 201.878 28.7563C201.549 29.0906 201.167 29.3513 200.73 29.5383L203.561 34.4258H200.858L198.146 29.7508H197.067V34.4258H194.721ZM197.067 27.4048H199.166C199.421 27.4048 199.654 27.3424 199.863 27.2178C200.079 27.0874 200.249 26.9146 200.373 26.6993C200.504 26.4783 200.569 26.2346 200.569 25.9683C200.569 25.7076 200.504 25.4696 200.373 25.2543C200.249 25.0333 200.079 24.8576 199.863 24.7273C199.654 24.5969 199.421 24.5318 199.166 24.5318H197.067V27.4048ZM210.19 34.6468C209.385 34.6468 208.629 34.4881 207.921 34.1708C207.212 33.8478 206.589 33.4029 206.051 32.8363C205.512 32.2696 205.09 31.6151 204.784 30.8728C204.478 30.1248 204.325 29.3258 204.325 28.4758C204.325 27.6258 204.478 26.8296 204.784 26.0873C205.09 25.3393 205.512 24.6819 206.051 24.1153C206.589 23.5486 207.212 23.1066 207.921 22.7893C208.629 22.4663 209.385 22.3048 210.19 22.3048C211 22.3048 211.76 22.4663 212.468 22.7893C213.176 23.1066 213.8 23.5486 214.338 24.1153C214.876 24.6819 215.296 25.3393 215.596 26.0873C215.902 26.8296 216.055 27.6258 216.055 28.4758C216.055 29.3258 215.902 30.1248 215.596 30.8728C215.296 31.6151 214.876 32.2696 214.338 32.8363C213.8 33.4029 213.176 33.8478 212.468 34.1708C211.76 34.4881 211 34.6468 210.19 34.6468ZM210.19 32.3008C210.672 32.3008 211.125 32.2016 211.55 32.0033C211.975 31.7993 212.349 31.5216 212.672 31.1703C212.995 30.8189 213.247 30.4138 213.429 29.9548C213.616 29.4958 213.709 29.0028 213.709 28.4758C213.709 27.9488 213.616 27.4558 213.429 26.9968C213.247 26.5321 212.995 26.1269 212.672 25.7813C212.349 25.4299 211.975 25.1551 211.55 24.9568C211.125 24.7528 210.672 24.6508 210.19 24.6508C209.708 24.6508 209.255 24.7528 208.83 24.9568C208.405 25.1551 208.031 25.4299 207.708 25.7813C207.385 26.1326 207.13 26.5378 206.943 26.9968C206.762 27.4558 206.671 27.9488 206.671 28.4758C206.671 29.0028 206.762 29.4986 206.943 29.9633C207.13 30.4223 207.385 30.8274 207.708 31.1788C208.031 31.5244 208.405 31.7993 208.83 32.0033C209.255 32.2016 209.708 32.3008 210.19 32.3008ZM221.831 34.4258V22.5258H226.557C227.203 22.5258 227.787 22.6901 228.308 23.0188C228.835 23.3418 229.252 23.7781 229.558 24.3278C229.869 24.8718 230.025 25.4753 230.025 26.1383C230.025 26.6596 229.934 27.1441 229.753 27.5918C229.572 28.0338 229.317 28.4219 228.988 28.7563C228.659 29.0906 228.277 29.3513 227.841 29.5383L230.671 34.4258H227.968L225.257 29.7508H224.177V34.4258H221.831ZM224.177 27.4048H226.277C226.532 27.4048 226.764 27.3424 226.974 27.2178C227.189 27.0874 227.359 26.9146 227.484 26.6993C227.614 26.4783 227.679 26.2346 227.679 25.9683C227.679 25.7076 227.614 25.4696 227.484 25.2543C227.359 25.0333 227.189 24.8576 226.974 24.7273C226.764 24.5969 226.532 24.5318 226.277 24.5318H224.177V27.4048ZM235.836 22.5258H238.505L242.823 34.4258H240.333L239.619 32.4538H234.723L234.009 34.4258H231.518L235.836 22.5258ZM235.581 30.1078H238.76L237.162 25.7473L235.581 30.1078ZM244.465 34.4258V22.5258H246.811V34.4258H244.465ZM249.107 34.4258V22.5258H251.453V32.0798H256.247V34.4258H249.107ZM267.714 34.6468C266.909 34.6468 266.153 34.4881 265.445 34.1708C264.736 33.8478 264.113 33.4029 263.575 32.8363C263.042 32.2696 262.623 31.6151 262.317 30.8728C262.016 30.1248 261.866 29.3258 261.866 28.4758C261.866 27.6201 262.016 26.8211 262.317 26.0788C262.623 25.3308 263.042 24.6763 263.575 24.1153C264.113 23.5486 264.736 23.1066 265.445 22.7893C266.153 22.4663 266.909 22.3048 267.714 22.3048C268.677 22.3048 269.564 22.5286 270.375 22.9763C271.185 23.4183 271.856 24.0104 272.389 24.7528L270.298 25.8833C269.981 25.5093 269.598 25.2118 269.151 24.9908C268.703 24.7641 268.224 24.6508 267.714 24.6508C267.232 24.6508 266.779 24.7499 266.354 24.9483C265.929 25.1466 265.555 25.4214 265.232 25.7728C264.915 26.1241 264.665 26.5293 264.484 26.9883C264.303 27.4473 264.212 27.9431 264.212 28.4758C264.212 29.0028 264.303 29.4986 264.484 29.9633C264.665 30.4223 264.915 30.8274 265.232 31.1788C265.555 31.5244 265.929 31.7993 266.354 32.0033C266.779 32.2016 267.232 32.3008 267.714 32.3008C268.23 32.3008 268.709 32.1874 269.151 31.9608C269.598 31.7341 269.981 31.4338 270.298 31.0598L272.389 32.1988C271.856 32.9354 271.185 33.5276 270.375 33.9753C269.564 34.4229 268.677 34.6468 267.714 34.6468ZM279.402 34.6468C278.597 34.6468 277.841 34.4881 277.132 34.1708C276.424 33.8478 275.801 33.4029 275.262 32.8363C274.724 32.2696 274.302 31.6151 273.996 30.8728C273.69 30.1248 273.537 29.3258 273.537 28.4758C273.537 27.6258 273.69 26.8296 273.996 26.0873C274.302 25.3393 274.724 24.6819 275.262 24.1153C275.801 23.5486 276.424 23.1066 277.132 22.7893C277.841 22.4663 278.597 22.3048 279.402 22.3048C280.212 22.3048 280.972 22.4663 281.68 22.7893C282.388 23.1066 283.012 23.5486 283.55 24.1153C284.088 24.6819 284.508 25.3393 284.808 26.0873C285.114 26.8296 285.267 27.6258 285.267 28.4758C285.267 29.3258 285.114 30.1248 284.808 30.8728C284.508 31.6151 284.088 32.2696 283.55 32.8363C283.012 33.4029 282.388 33.8478 281.68 34.1708C280.972 34.4881 280.212 34.6468 279.402 34.6468ZM279.402 32.3008C279.884 32.3008 280.337 32.2016 280.762 32.0033C281.187 31.7993 281.561 31.5216 281.884 31.1703C282.207 30.8189 282.459 30.4138 282.64 29.9548C282.827 29.4958 282.921 29.0028 282.921 28.4758C282.921 27.9488 282.827 27.4558 282.64 26.9968C282.459 26.5321 282.207 26.1269 281.884 25.7813C281.561 25.4299 281.187 25.1551 280.762 24.9568C280.337 24.7528 279.884 24.6508 279.402 24.6508C278.92 24.6508 278.467 24.7528 278.042 24.9568C277.617 25.1551 277.243 25.4299 276.92 25.7813C276.597 26.1326 276.342 26.5378 276.155 26.9968C275.974 27.4558 275.883 27.9488 275.883 28.4758C275.883 29.0028 275.974 29.4986 276.155 29.9633C276.342 30.4223 276.597 30.8274 276.92 31.1788C277.243 31.5244 277.617 31.7993 278.042 32.0033C278.467 32.2016 278.92 32.3008 279.402 32.3008ZM286.76 34.4258V22.5258H291.486C292.132 22.5258 292.715 22.6901 293.237 23.0188C293.764 23.3418 294.18 23.7781 294.486 24.3278C294.798 24.8718 294.954 25.4753 294.954 26.1383C294.954 26.6596 294.863 27.1441 294.682 27.5918C294.5 28.0338 294.245 28.4219 293.917 28.7563C293.588 29.0906 293.206 29.3513 292.769 29.5383L295.6 34.4258H292.897L290.185 29.7508H289.106V34.4258H286.76ZM289.106 27.4048H291.205C291.46 27.4048 291.693 27.3424 291.902 27.2178C292.118 27.0874 292.288 26.9146 292.412 26.6993C292.543 26.4783 292.608 26.2346 292.608 25.9683C292.608 25.7076 292.543 25.4696 292.412 25.2543C292.288 25.0333 292.118 24.8576 291.902 24.7273C291.693 24.5969 291.46 24.5318 291.205 24.5318H289.106V27.4048ZM297.069 34.4258V22.5258H301.455C302.107 22.5258 302.693 22.6901 303.215 23.0188C303.742 23.3474 304.161 23.7866 304.473 24.3363C304.784 24.8803 304.94 25.4809 304.94 26.1383C304.94 26.8069 304.782 27.4161 304.464 27.9658C304.147 28.5098 303.722 28.9433 303.189 29.2663C302.662 29.5893 302.084 29.7508 301.455 29.7508H299.415V34.4258H297.069ZM299.415 27.4048H301.192C301.452 27.4048 301.688 27.3424 301.897 27.2178C302.107 27.0874 302.274 26.9146 302.399 26.6993C302.529 26.4783 302.594 26.2346 302.594 25.9683C302.594 25.7076 302.529 25.4696 302.399 25.2543C302.274 25.0333 302.107 24.8576 301.897 24.7273C301.688 24.5969 301.452 24.5318 301.192 24.5318H299.415V27.4048ZM312.173 34.6468C311.369 34.6468 310.612 34.4881 309.904 34.1708C309.196 33.8478 308.572 33.4029 308.034 32.8363C307.496 32.2696 307.073 31.6151 306.767 30.8728C306.461 30.1248 306.308 29.3258 306.308 28.4758C306.308 27.6258 306.461 26.8296 306.767 26.0873C307.073 25.3393 307.496 24.6819 308.034 24.1153C308.572 23.5486 309.196 23.1066 309.904 22.7893C310.612 22.4663 311.369 22.3048 312.173 22.3048C312.984 22.3048 313.743 22.4663 314.451 22.7893C315.16 23.1066 315.783 23.5486 316.321 24.1153C316.86 24.6819 317.279 25.3393 317.579 26.0873C317.885 26.8296 318.038 27.6258 318.038 28.4758C318.038 29.3258 317.885 30.1248 317.579 30.8728C317.279 31.6151 316.86 32.2696 316.321 32.8363C315.783 33.4029 315.16 33.8478 314.451 34.1708C313.743 34.4881 312.984 34.6468 312.173 34.6468ZM312.173 32.3008C312.655 32.3008 313.108 32.2016 313.533 32.0033C313.958 31.7993 314.332 31.5216 314.655 31.1703C314.978 30.8189 315.231 30.4138 315.412 29.9548C315.599 29.4958 315.692 29.0028 315.692 28.4758C315.692 27.9488 315.599 27.4558 315.412 26.9968C315.231 26.5321 314.978 26.1269 314.655 25.7813C314.332 25.4299 313.958 25.1551 313.533 24.9568C313.108 24.7528 312.655 24.6508 312.173 24.6508C311.692 24.6508 311.238 24.7528 310.813 24.9568C310.388 25.1551 310.014 25.4299 309.691 25.7813C309.368 26.1326 309.113 26.5378 308.926 26.9968C308.745 27.4558 308.654 27.9488 308.654 28.4758C308.654 29.0028 308.745 29.4986 308.926 29.9633C309.113 30.4223 309.368 30.8274 309.691 31.1788C310.014 31.5244 310.388 31.7993 310.813 32.0033C311.238 32.2016 311.692 32.3008 312.173 32.3008ZM319.531 34.4258V22.5258H324.257C324.903 22.5258 325.487 22.6901 326.008 23.0188C326.535 23.3418 326.952 23.7781 327.258 24.3278C327.569 24.8718 327.725 25.4753 327.725 26.1383C327.725 26.6596 327.635 27.1441 327.453 27.5918C327.272 28.0338 327.017 28.4219 326.688 28.7563C326.36 29.0906 325.977 29.3513 325.541 29.5383L328.371 34.4258H325.668L322.957 29.7508H321.877V34.4258H319.531ZM321.877 27.4048H323.977C324.232 27.4048 324.464 27.3424 324.674 27.2178C324.889 27.0874 325.059 26.9146 325.184 26.6993C325.314 26.4783 325.379 26.2346 325.379 25.9683C325.379 25.7076 325.314 25.4696 325.184 25.2543C325.059 25.0333 324.889 24.8576 324.674 24.7273C324.464 24.5969 324.232 24.5318 323.977 24.5318H321.877V27.4048ZM333.537 22.5258H336.206L340.524 34.4258H338.033L337.319 32.4538H332.423L331.709 34.4258H329.219L333.537 22.5258ZM333.282 30.1078H336.461L334.863 25.7473L333.282 30.1078ZM349.559 22.5258V24.8718H346.057V34.4258H343.711V24.8718H340.209V22.5258H349.559ZM351.512 34.4258V22.5258H353.858V34.4258H351.512ZM361.679 34.6468C360.875 34.6468 360.118 34.4881 359.41 34.1708C358.701 33.8478 358.078 33.4029 357.54 32.8363C357.001 32.2696 356.579 31.6151 356.273 30.8728C355.967 30.1248 355.814 29.3258 355.814 28.4758C355.814 27.6258 355.967 26.8296 356.273 26.0873C356.579 25.3393 357.001 24.6819 357.54 24.1153C358.078 23.5486 358.701 23.1066 359.41 22.7893C360.118 22.4663 360.875 22.3048 361.679 22.3048C362.49 22.3048 363.249 22.4663 363.957 22.7893C364.666 23.1066 365.289 23.5486 365.827 24.1153C366.366 24.6819 366.785 25.3393 367.085 26.0873C367.391 26.8296 367.544 27.6258 367.544 28.4758C367.544 29.3258 367.391 30.1248 367.085 30.8728C366.785 31.6151 366.366 32.2696 365.827 32.8363C365.289 33.4029 364.666 33.8478 363.957 34.1708C363.249 34.4881 362.49 34.6468 361.679 34.6468ZM361.679 32.3008C362.161 32.3008 362.614 32.2016 363.039 32.0033C363.464 31.7993 363.838 31.5216 364.161 31.1703C364.484 30.8189 364.736 30.4138 364.918 29.9548C365.105 29.4958 365.198 29.0028 365.198 28.4758C365.198 27.9488 365.105 27.4558 364.918 26.9968C364.736 26.5321 364.484 26.1269 364.161 25.7813C363.838 25.4299 363.464 25.1551 363.039 24.9568C362.614 24.7528 362.161 24.6508 361.679 24.6508C361.198 24.6508 360.744 24.7528 360.319 24.9568C359.894 25.1551 359.52 25.4299 359.197 25.7813C358.874 26.1326 358.619 26.5378 358.432 26.9968C358.251 27.4558 358.16 27.9488 358.16 28.4758C358.16 29.0028 358.251 29.4986 358.432 29.9633C358.619 30.4223 358.874 30.8274 359.197 31.1788C359.52 31.5244 359.894 31.7993 360.319 32.0033C360.744 32.2016 361.198 32.3008 361.679 32.3008ZM369.037 34.4258V22.5258H371.57L376.211 30.1843V22.5258H378.557V34.4258H376.024L371.383 26.7673V34.4258H369.037ZM384.676 34.4258V22.5258H387.022V32.0798H391.816V34.4258H384.676ZM401.422 22.5258V24.8718H397.92V34.4258H395.574V24.8718H392.072V22.5258H401.422ZM403.12 34.4258V22.5258H407.064C407.886 22.5258 408.654 22.6816 409.368 22.9933C410.087 23.2993 410.719 23.7271 411.263 24.2768C411.813 24.8208 412.241 25.4526 412.547 26.1723C412.858 26.8863 413.014 27.6541 413.014 28.4758C413.014 29.2974 412.858 30.0681 412.547 30.7878C412.241 31.5018 411.813 32.1336 411.263 32.6833C410.719 33.2273 410.087 33.6551 409.368 33.9668C408.654 34.2728 407.886 34.4258 407.064 34.4258H403.12ZM405.466 32.0798H407.064C407.551 32.0798 408.01 31.9863 408.441 31.7993C408.877 31.6123 409.263 31.3544 409.597 31.0258C409.931 30.6971 410.192 30.3146 410.379 29.8783C410.572 29.4419 410.668 28.9744 410.668 28.4758C410.668 27.9771 410.572 27.5124 410.379 27.0818C410.192 26.6454 409.931 26.2629 409.597 25.9343C409.268 25.5999 408.886 25.3393 408.45 25.1523C408.019 24.9653 407.557 24.8718 407.064 24.8718H405.466V32.0798ZM414.968 34.6468C414.64 34.6468 414.359 34.5334 414.127 34.3068C413.9 34.0744 413.787 33.7911 413.787 33.4568C413.787 33.1338 413.9 32.8561 414.127 32.6238C414.359 32.3914 414.64 32.2753 414.968 32.2753C415.297 32.2753 415.578 32.3914 415.81 32.6238C416.042 32.8561 416.158 33.1338 416.158 33.4568C416.158 33.7911 416.042 34.0744 415.81 34.3068C415.578 34.5334 415.297 34.6468 414.968 34.6468Z" fill="#3D3D3D"></path>
<g clip-path="url(#clip0_3135_96)">
<path d="M42.378 33.4559L43.753 32.6V27.2712L39.2288 30.0879V49.9163C39.2288 51.1648 40.2413 52.1773 41.4898 52.1773C42.7384 52.1773 43.7509 51.1648 43.7509 49.9163V34.3119L42.3758 33.4559H42.378Z" fill="#39AE62"></path>
<path d="M32.362 34.3655V49.9163C32.362 51.1648 33.3746 52.1773 34.6231 52.1773C35.8716 52.1773 36.8841 51.1648 36.8841 49.9163V31.5488L32.3599 34.3655H32.362Z" fill="#93C13E"></path>
<path d="M43.755 24.5062V9.05624C43.755 7.80771 42.7425 6.79517 41.494 6.79517C40.2455 6.79517 39.2329 7.80771 39.2329 9.05624V27.3228L43.7572 24.5062H43.755Z" fill="#39AE62"></path>
<path d="M17.0227 38.4909C16.3619 37.4312 16.6859 36.0347 17.7477 35.3761L52.4318 13.7736C53.4915 13.1129 54.8881 13.4368 55.5467 14.4987C56.2074 15.5585 55.8835 16.955 54.8216 17.6136L20.1397 39.2139C19.0799 39.8746 17.6834 39.5507 17.0248 38.4888L17.0227 38.4909Z" fill="#EB6924"></path>
<path d="M20.6555 44.3216C19.9947 43.2618 20.3187 41.8653 21.3806 41.2067L56.0646 19.6064C57.1243 18.9457 58.5209 19.2696 59.1795 20.3315C59.8402 21.3912 59.5163 22.7878 58.4544 23.4464L23.7725 45.0467C22.7127 45.7074 21.3162 45.3835 20.6576 44.3216H20.6555Z" fill="#E21F26"></path>
<path d="M58.4505 35.3737L44.5945 26.7434L40.3169 29.4078L56.0607 39.2115C57.1205 39.8722 58.517 39.5483 59.1756 38.4864C59.8363 37.4266 59.5124 36.0301 58.4505 35.3715V35.3737Z" fill="#1A95D3"></path>
<path d="M35.8832 29.4101L20.1416 19.6064C19.0818 18.9457 17.6853 19.2696 17.0267 20.3315C16.366 21.3912 16.6899 22.7878 17.7518 23.4464L31.6078 32.0766L35.8854 29.4122L35.8832 29.4101Z" fill="#5B4595"></path>
<path d="M54.8224 41.2066L38.1003 30.7915L33.8228 33.4559L52.4326 45.0444C53.4923 45.7051 54.8889 45.3812 55.5475 44.3193C56.2082 43.2596 55.8843 41.863 54.8224 41.2044V41.2066Z" fill="#5B4595"></path>
<path d="M33.8228 33.4559L44.6154 26.7285L48.8951 29.3929L38.1025 36.1225L33.8228 33.4559Z" fill="#AD1F23"></path>
<path d="M34.6229 6.79517C33.3744 6.79517 32.3618 7.80771 32.3618 9.05624V24.4525L33.8227 25.3621L32.3618 26.2717V31.6004L36.8861 28.7837V9.05624C36.8861 7.80771 35.8736 6.79517 34.625 6.79517H34.6229Z" fill="#93C13E"></path>
<path d="M42.38 25.3643L23.7723 13.7736C22.7126 13.1129 21.316 13.4368 20.6574 14.4987C19.9967 15.5585 20.3206 16.955 21.3825 17.6136L38.1046 28.0287L42.3821 25.3643H42.38Z" fill="#1A95D3"></path>
<path d="M27.3228 29.4099L38.1004 22.6975L42.378 25.364L31.6025 32.0743L27.3228 29.4099Z" fill="#F29320"></path>
<path d="M12.8323 69.0364V57.302H15.8935L18.826 62.5321L21.7607 57.302H24.779V69.0364H21.9302V63.1692L20.1454 66.1017H17.5947L15.8935 63.1692V69.0364H12.8323Z" fill="#575656"></path>
<path d="M27.139 69.0362V57.3018H30.2003L33.1328 62.5318L36.0675 57.3018H39.0858V69.0362H36.2369V63.169L34.45 66.1015H31.8993L30.2003 63.169V69.0362H27.139Z" fill="#575656"></path>
<path d="M49.2052 64.4818C50.4537 63.9563 51.3289 62.7227 51.3289 61.2833V60.7727C51.3289 58.857 49.7758 57.3018 47.858 57.3018H41.4437V69.0362H44.6637V65.0074H45.9702L47.9781 69.0362H51.6443L49.2009 64.4818H49.2052ZM44.6637 59.8417H46.9119C47.5898 59.8417 48.139 60.3909 48.139 61.0688V61.2597C48.139 61.9376 47.5898 62.4868 46.9119 62.4868H44.6637V59.8396V59.8417Z" fill="#575656"></path>
<path d="M60.5996 64.6708C60.0354 65.9579 59.04 66.5478 58.1304 66.2818C57.2165 66.0158 56.5151 65.1019 56.5151 63.3686C56.5151 61.6353 56.7918 60.9874 57.2809 60.3717C57.77 59.756 58.8212 59.6595 59.4283 60.1379C60.0332 60.6163 60.3529 61.6589 60.3529 61.6589L63.3691 60.4554C62.6096 58.3509 60.9943 56.905 58.5766 56.905C54.8997 56.905 53.014 59.8783 53.014 63.2785C53.014 67.0326 55.3674 69.1843 58.5273 69.1843C60.7283 69.1843 62.5367 68.0431 63.3733 66.0652L60.6017 64.6708H60.5996Z" fill="#575656"></path>
</g>
<path d="M87.3656 55.3524C86.8896 54.8904 86.5023 54.3864 86.2036 53.8404C85.9049 53.2897 85.6856 52.6994 85.5456 52.0694C85.4056 51.4394 85.3356 50.7697 85.3356 50.0604C85.3356 49.7104 85.3659 49.3277 85.4266 48.9124C85.4873 48.497 85.5759 48.077 85.6926 47.6524C85.8093 47.2277 85.9493 46.824 86.1126 46.4414C86.2806 46.0587 86.4696 45.7204 86.6796 45.4264C86.8896 45.1324 87.1183 44.913 87.3656 44.7684H88.8216C88.6116 44.9364 88.4086 45.1674 88.2126 45.4614C88.0166 45.7507 87.8346 46.082 87.6666 46.4554C87.4986 46.8287 87.3493 47.223 87.2186 47.6384C87.0879 48.0537 86.9853 48.469 86.9106 48.8844C86.8359 49.295 86.7963 49.687 86.7916 50.0604C86.8009 50.793 86.8989 51.4884 87.0856 52.1464C87.2769 52.7997 87.5243 53.3994 87.8276 53.9454C88.1356 54.4867 88.4669 54.9557 88.8216 55.3524H87.3656ZM91.7109 54.7504C91.3655 54.7504 91.0272 54.692 90.6959 54.5754C90.3692 54.4587 90.0729 54.286 89.8069 54.0574L90.7379 52.9374C90.8545 53.0354 90.9945 53.1194 91.1579 53.1894C91.3212 53.2594 91.5055 53.2944 91.7109 53.2944C91.9909 53.2944 92.2452 53.222 92.4739 53.0774C92.7072 52.928 92.8939 52.7344 93.0339 52.4964C93.1739 52.2537 93.2439 51.9947 93.2439 51.7194V44.7684H94.6999V51.7194C94.6999 52.2654 94.5645 52.7694 94.2939 53.2314C94.0232 53.6887 93.6615 54.0574 93.2089 54.3374C92.7609 54.6127 92.2615 54.7504 91.7109 54.7504ZM99.7936 54.5684L96.2376 44.7684H97.7776L100.704 52.8394L103.644 44.7684H105.184L101.628 54.5684H99.7936ZM112.957 54.7504C112.313 54.7504 111.725 54.5847 111.193 54.2534C110.665 53.922 110.243 53.4787 109.926 52.9234C109.613 52.3634 109.457 51.745 109.457 51.0684C109.457 50.555 109.548 50.0767 109.73 49.6334C109.912 49.1854 110.161 48.7934 110.479 48.4574C110.801 48.1167 111.174 47.8507 111.599 47.6594C112.023 47.468 112.476 47.3724 112.957 47.3724C113.601 47.3724 114.186 47.538 114.714 47.8694C115.246 48.2007 115.668 48.6464 115.981 49.2064C116.298 49.7664 116.457 50.387 116.457 51.0684C116.457 51.577 116.366 52.053 116.184 52.4964C116.002 52.9397 115.75 53.3317 115.428 53.6724C115.11 54.0084 114.739 54.272 114.315 54.4634C113.895 54.6547 113.442 54.7504 112.957 54.7504ZM112.957 53.2944C113.344 53.2944 113.692 53.1917 114 52.9864C114.308 52.781 114.55 52.5104 114.728 52.1744C114.91 51.8337 115.001 51.465 115.001 51.0684C115.001 50.6624 114.907 50.289 114.721 49.9484C114.539 49.6077 114.294 49.337 113.986 49.1364C113.678 48.931 113.335 48.8284 112.957 48.8284C112.574 48.8284 112.226 48.931 111.914 49.1364C111.606 49.3417 111.361 49.6147 111.179 49.9554C111.001 50.296 110.913 50.667 110.913 51.0684C110.913 51.4837 111.006 51.8594 111.193 52.1954C111.379 52.5314 111.627 52.7997 111.935 53.0004C112.247 53.1964 112.588 53.2944 112.957 53.2944ZM119.51 45.9794V47.5684H121.484V49.0244H119.51V54.5684H118.054V49.0244H117.221V47.5684H118.054V45.9794C118.054 45.5967 118.147 45.249 118.334 44.9364C118.52 44.619 118.77 44.367 119.083 44.1804C119.4 43.9937 119.752 43.9004 120.14 43.9004C120.42 43.9004 120.693 43.9564 120.959 44.0684C121.225 44.1804 121.463 44.353 121.673 44.5864L120.63 45.6154C120.578 45.5314 120.506 45.4684 120.413 45.4264C120.324 45.3797 120.233 45.3564 120.14 45.3564C119.967 45.3564 119.818 45.417 119.692 45.5384C119.57 45.6597 119.51 45.8067 119.51 45.9794ZM130.566 54.7504C129.885 54.7504 129.25 54.6197 128.662 54.3584C128.079 54.0924 127.568 53.726 127.129 53.2594C126.695 52.788 126.354 52.2444 126.107 51.6284C125.864 51.0124 125.743 50.3567 125.743 49.6614C125.743 48.9287 125.874 48.2544 126.135 47.6384C126.396 47.0224 126.753 46.488 127.206 46.0354C127.659 45.578 128.174 45.2234 128.753 44.9714C129.336 44.7194 129.948 44.5934 130.587 44.5934C131.31 44.5934 132.006 44.7614 132.673 45.0974C133.34 45.4334 133.921 45.9374 134.416 46.6094L133.114 47.3164C132.778 46.8964 132.386 46.579 131.938 46.3644C131.495 46.1497 131.04 46.0424 130.573 46.0424C130.12 46.0424 129.691 46.1357 129.285 46.3224C128.879 46.5044 128.52 46.761 128.207 47.0924C127.894 47.419 127.647 47.804 127.465 48.2474C127.288 48.686 127.199 49.1644 127.199 49.6824C127.199 50.1817 127.285 50.6507 127.458 51.0894C127.635 51.528 127.878 51.913 128.186 52.2444C128.499 52.571 128.858 52.8277 129.264 53.0144C129.675 53.201 130.113 53.2944 130.58 53.2944C130.925 53.2944 131.257 53.2384 131.574 53.1264C131.891 53.0144 132.185 52.8557 132.456 52.6504C132.731 52.4404 132.972 52.1907 133.177 51.9014C133.382 51.612 133.546 51.29 133.667 50.9354H131.588V49.6474H135.375C135.384 50.3474 135.263 51.0054 135.011 51.6214C134.764 52.2374 134.418 52.781 133.975 53.2524C133.536 53.719 133.025 54.0854 132.442 54.3514C131.859 54.6174 131.233 54.7504 130.566 54.7504ZM139.671 54.7504C139.027 54.7504 138.439 54.5847 137.907 54.2534C137.38 53.922 136.958 53.4787 136.64 52.9234C136.328 52.3634 136.171 51.745 136.171 51.0684C136.171 50.555 136.262 50.0767 136.444 49.6334C136.626 49.1854 136.876 48.7934 137.193 48.4574C137.515 48.1167 137.889 47.8507 138.313 47.6594C138.738 47.468 139.191 47.3724 139.671 47.3724C140.315 47.3724 140.901 47.538 141.428 47.8694C141.96 48.2007 142.383 48.6464 142.695 49.2064C143.013 49.7664 143.171 50.387 143.171 51.0684C143.171 51.577 143.08 52.053 142.898 52.4964C142.716 52.9397 142.464 53.3317 142.142 53.6724C141.825 54.0084 141.454 54.272 141.029 54.4634C140.609 54.6547 140.157 54.7504 139.671 54.7504ZM139.671 53.2944C140.059 53.2944 140.406 53.1917 140.714 52.9864C141.022 52.781 141.265 52.5104 141.442 52.1744C141.624 51.8337 141.715 51.465 141.715 51.0684C141.715 50.6624 141.622 50.289 141.435 49.9484C141.253 49.6077 141.008 49.337 140.7 49.1364C140.392 48.931 140.049 48.8284 139.671 48.8284C139.289 48.8284 138.941 48.931 138.628 49.1364C138.32 49.3417 138.075 49.6147 137.893 49.9554C137.716 50.296 137.627 50.667 137.627 51.0684C137.627 51.4837 137.721 51.8594 137.907 52.1954C138.094 52.5314 138.341 52.7997 138.649 53.0004C138.962 53.1964 139.303 53.2944 139.671 53.2944ZM147.978 54.5684H146.109L143.554 47.5544H145.108L147.04 52.8884L148.979 47.5544H150.526L147.978 54.5684ZM155.477 49.0244H154.007L154 54.5684H152.544L152.551 49.0244H151.438V47.5684H152.551L152.544 45.3704H154L154.007 47.5684H155.477V49.0244ZM157.076 54.7504C156.862 54.7504 156.68 54.6757 156.53 54.5264C156.386 54.377 156.313 54.195 156.313 53.9804C156.313 53.7704 156.386 53.5907 156.53 53.4414C156.68 53.292 156.862 53.2174 157.076 53.2174C157.291 53.2174 157.473 53.292 157.622 53.4414C157.772 53.5907 157.846 53.7704 157.846 53.9804C157.846 54.195 157.772 54.377 157.622 54.5264C157.473 54.6757 157.291 54.7504 157.076 54.7504ZM165.976 54.7504C165.332 54.7504 164.744 54.5847 164.212 54.2534C163.685 53.922 163.262 53.4787 162.945 52.9234C162.632 52.3634 162.476 51.745 162.476 51.0684C162.476 50.555 162.567 50.0767 162.749 49.6334C162.931 49.1854 163.181 48.7934 163.498 48.4574C163.82 48.1167 164.193 47.8507 164.618 47.6594C165.043 47.468 165.495 47.3724 165.976 47.3724C166.62 47.3724 167.206 47.538 167.733 47.8694C168.265 48.2007 168.687 48.6464 169 49.2064C169.317 49.7664 169.476 50.387 169.476 51.0684C169.476 51.577 169.385 52.053 169.203 52.4964C169.021 52.9397 168.769 53.3317 168.447 53.6724C168.13 54.0084 167.759 54.272 167.334 54.4634C166.914 54.6547 166.461 54.7504 165.976 54.7504ZM165.976 53.2944C166.363 53.2944 166.711 53.1917 167.019 52.9864C167.327 52.781 167.57 52.5104 167.747 52.1744C167.929 51.8337 168.02 51.465 168.02 51.0684C168.02 50.6624 167.927 50.289 167.74 49.9484C167.558 49.6077 167.313 49.337 167.005 49.1364C166.697 48.931 166.354 48.8284 165.976 48.8284C165.593 48.8284 165.246 48.931 164.933 49.1364C164.625 49.3417 164.38 49.6147 164.198 49.9554C164.021 50.296 163.932 50.667 163.932 51.0684C163.932 51.4837 164.025 51.8594 164.212 52.1954C164.399 52.5314 164.646 52.7997 164.954 53.0004C165.267 53.1964 165.607 53.2944 165.976 53.2944ZM172.529 45.9794V47.5684H174.503V49.0244H172.529V54.5684H171.073V49.0244H170.24V47.5684H171.073V45.9794C171.073 45.5967 171.166 45.249 171.353 44.9364C171.54 44.619 171.789 44.367 172.102 44.1804C172.419 43.9937 172.772 43.9004 173.159 43.9004C173.439 43.9004 173.712 43.9564 173.978 44.0684C174.244 44.1804 174.482 44.353 174.692 44.5864L173.649 45.6154C173.598 45.5314 173.525 45.4684 173.432 45.4264C173.343 45.3797 173.252 45.3564 173.159 45.3564C172.986 45.3564 172.837 45.417 172.711 45.5384C172.59 45.6597 172.529 45.8067 172.529 45.9794ZM179.253 54.5684V44.7684H180.709V54.5684H179.253ZM188.897 50.1794V54.5684H187.441V50.5364C187.441 50.2237 187.364 49.939 187.21 49.6824C187.061 49.4257 186.858 49.2227 186.601 49.0734C186.349 48.9194 186.065 48.8424 185.747 48.8424C185.439 48.8424 185.157 48.9194 184.9 49.0734C184.644 49.2227 184.438 49.4257 184.284 49.6824C184.13 49.939 184.053 50.2237 184.053 50.5364V54.5684H182.597V47.5684H184.053V48.3104C184.296 48.021 184.595 47.7924 184.949 47.6244C185.304 47.4564 185.687 47.3724 186.097 47.3724C186.615 47.3724 187.087 47.4984 187.511 47.7504C187.936 48.0024 188.272 48.3407 188.519 48.7654C188.771 49.19 188.897 49.6614 188.897 50.1794ZM195.611 44.0684H197.067V54.5684H195.611V53.5394C195.382 53.9034 195.084 54.1974 194.715 54.4214C194.346 54.6407 193.915 54.7504 193.42 54.7504C192.911 54.7504 192.435 54.6547 191.992 54.4634C191.549 54.272 191.157 54.0084 190.816 53.6724C190.48 53.3317 190.216 52.9397 190.025 52.4964C189.834 52.053 189.738 51.577 189.738 51.0684C189.738 50.5597 189.834 50.0837 190.025 49.6404C190.216 49.1924 190.48 48.8004 190.816 48.4644C191.157 48.1237 191.549 47.8577 191.992 47.6664C192.435 47.475 192.911 47.3794 193.42 47.3794C193.915 47.3794 194.346 47.4914 194.715 47.7154C195.084 47.9347 195.382 48.224 195.611 48.5834V44.0684ZM193.434 53.3434C193.845 53.3434 194.204 53.243 194.512 53.0424C194.82 52.837 195.058 52.5617 195.226 52.2164C195.399 51.871 195.485 51.4884 195.485 51.0684C195.485 50.6437 195.399 50.2587 195.226 49.9134C195.053 49.568 194.813 49.295 194.505 49.0944C194.202 48.889 193.845 48.7864 193.434 48.7864C193.028 48.7864 192.657 48.889 192.321 49.0944C191.99 49.2997 191.724 49.575 191.523 49.9204C191.327 50.2657 191.229 50.6484 191.229 51.0684C191.229 51.493 191.329 51.878 191.53 52.2234C191.735 52.564 192.004 52.837 192.335 53.0424C192.671 53.243 193.037 53.3434 193.434 53.3434ZM198.744 47.5684H200.2V54.5684H198.744V47.5684ZM199.486 46.5534C199.262 46.5534 199.075 46.481 198.926 46.3364C198.776 46.1917 198.702 46.0097 198.702 45.7904C198.702 45.5757 198.776 45.396 198.926 45.2514C199.075 45.102 199.259 45.0274 199.479 45.0274C199.693 45.0274 199.875 45.102 200.025 45.2514C200.174 45.396 200.249 45.5757 200.249 45.7904C200.249 46.0097 200.174 46.1917 200.025 46.3364C199.88 46.481 199.7 46.5534 199.486 46.5534ZM207.198 47.5684H208.654V54.5684H207.191L207.135 53.5534C206.929 53.9127 206.652 54.202 206.302 54.4214C205.952 54.6407 205.539 54.7504 205.063 54.7504C204.549 54.7504 204.066 54.6547 203.614 54.4634C203.161 54.2674 202.762 53.9967 202.417 53.6514C202.076 53.306 201.81 52.9094 201.619 52.4614C201.427 52.0087 201.332 51.5234 201.332 51.0054C201.332 50.506 201.425 50.037 201.612 49.5984C201.798 49.155 202.057 48.7677 202.389 48.4364C202.72 48.105 203.103 47.846 203.537 47.6594C203.975 47.468 204.444 47.3724 204.944 47.3724C205.452 47.3724 205.9 47.489 206.288 47.7224C206.68 47.951 207.004 48.245 207.261 48.6044L207.198 47.5684ZM205.028 53.3434C205.438 53.3434 205.798 53.243 206.106 53.0424C206.414 52.837 206.652 52.5617 206.82 52.2164C206.992 51.871 207.079 51.4884 207.079 51.0684C207.079 50.6437 206.992 50.2587 206.82 49.9134C206.647 49.568 206.407 49.295 206.099 49.0944C205.795 48.889 205.438 48.7864 205.028 48.7864C204.622 48.7864 204.251 48.889 203.915 49.0944C203.579 49.2997 203.313 49.575 203.117 49.9204C202.921 50.2657 202.823 50.6484 202.823 51.0684C202.823 51.493 202.923 51.878 203.124 52.2234C203.329 52.564 203.597 52.837 203.929 53.0424C204.265 53.243 204.631 53.3434 205.028 53.3434ZM218.86 47.5684H220.316V54.5684H218.853L218.797 53.5534C218.591 53.9127 218.314 54.202 217.964 54.4214C217.614 54.6407 217.201 54.7504 216.725 54.7504C216.211 54.7504 215.728 54.6547 215.276 54.4634C214.823 54.2674 214.424 53.9967 214.079 53.6514C213.738 53.306 213.472 52.9094 213.281 52.4614C213.089 52.0087 212.994 51.5234 212.994 51.0054C212.994 50.506 213.087 50.037 213.274 49.5984C213.46 49.155 213.719 48.7677 214.051 48.4364C214.382 48.105 214.765 47.846 215.199 47.6594C215.637 47.468 216.106 47.3724 216.606 47.3724C217.114 47.3724 217.562 47.489 217.95 47.7224C218.342 47.951 218.666 48.245 218.923 48.6044L218.86 47.5684ZM216.69 53.3434C217.1 53.3434 217.46 53.243 217.768 53.0424C218.076 52.837 218.314 52.5617 218.482 52.2164C218.654 51.871 218.741 51.4884 218.741 51.0684C218.741 50.6437 218.654 50.2587 218.482 49.9134C218.309 49.568 218.069 49.295 217.761 49.0944C217.457 48.889 217.1 48.7864 216.69 48.7864C216.284 48.7864 215.913 48.889 215.577 49.0944C215.241 49.2997 214.975 49.575 214.779 49.9204C214.583 50.2657 214.485 50.6484 214.485 51.0684C214.485 51.493 214.585 51.878 214.786 52.2234C214.991 52.564 215.259 52.837 215.591 53.0424C215.927 53.243 216.293 53.3434 216.69 53.3434ZM228.013 50.1794V54.5684H226.557V50.5364C226.557 50.2237 226.48 49.939 226.326 49.6824C226.176 49.4257 225.973 49.2227 225.717 49.0734C225.465 48.9194 225.18 48.8424 224.863 48.8424C224.555 48.8424 224.272 48.9194 224.016 49.0734C223.759 49.2227 223.554 49.4257 223.4 49.6824C223.246 49.939 223.169 50.2237 223.169 50.5364V54.5684H221.713V47.5684H223.169V48.3104C223.411 48.021 223.71 47.7924 224.065 47.6244C224.419 47.4564 224.802 47.3724 225.213 47.3724C225.731 47.3724 226.202 47.4984 226.627 47.7504C227.051 48.0024 227.387 48.3407 227.635 48.7654C227.887 49.19 228.013 49.6614 228.013 50.1794ZM234.726 44.0684H236.182V54.5684H234.726V53.5394C234.497 53.9034 234.199 54.1974 233.83 54.4214C233.461 54.6407 233.03 54.7504 232.535 54.7504C232.026 54.7504 231.55 54.6547 231.107 54.4634C230.664 54.272 230.272 54.0084 229.931 53.6724C229.595 53.3317 229.331 52.9397 229.14 52.4964C228.949 52.053 228.853 51.577 228.853 51.0684C228.853 50.5597 228.949 50.0837 229.14 49.6404C229.331 49.1924 229.595 48.8004 229.931 48.4644C230.272 48.1237 230.664 47.8577 231.107 47.6664C231.55 47.475 232.026 47.3794 232.535 47.3794C233.03 47.3794 233.461 47.4914 233.83 47.7154C234.199 47.9347 234.497 48.224 234.726 48.5834V44.0684ZM232.549 53.3434C232.96 53.3434 233.319 53.243 233.627 53.0424C233.935 52.837 234.173 52.5617 234.341 52.2164C234.514 51.871 234.6 51.4884 234.6 51.0684C234.6 50.6437 234.514 50.2587 234.341 49.9134C234.168 49.568 233.928 49.295 233.62 49.0944C233.317 48.889 232.96 48.7864 232.549 48.7864C232.143 48.7864 231.772 48.889 231.436 49.0944C231.105 49.2997 230.839 49.575 230.638 49.9204C230.442 50.2657 230.344 50.6484 230.344 51.0684C230.344 51.493 230.444 51.878 230.645 52.2234C230.85 52.564 231.119 52.837 231.45 53.0424C231.786 53.243 232.152 53.3434 232.549 53.3434ZM245.765 54.7504C245.084 54.7504 244.449 54.6197 243.861 54.3584C243.278 54.0924 242.767 53.726 242.328 53.2594C241.894 52.788 241.554 52.2444 241.306 51.6284C241.064 51.0124 240.942 50.3567 240.942 49.6614C240.942 48.9287 241.073 48.2544 241.334 47.6384C241.596 47.0224 241.953 46.488 242.405 46.0354C242.858 45.578 243.374 45.2234 243.952 44.9714C244.536 44.7194 245.147 44.5934 245.786 44.5934C246.51 44.5934 247.205 44.7614 247.872 45.0974C248.54 45.4334 249.121 45.9374 249.615 46.6094L248.313 47.3164C247.977 46.8964 247.585 46.579 247.137 46.3644C246.694 46.1497 246.239 46.0424 245.772 46.0424C245.32 46.0424 244.89 46.1357 244.484 46.3224C244.078 46.5044 243.719 46.761 243.406 47.0924C243.094 47.419 242.846 47.804 242.664 48.2474C242.487 48.686 242.398 49.1644 242.398 49.6824C242.398 50.1817 242.485 50.6507 242.657 51.0894C242.835 51.528 243.077 51.913 243.385 52.2444C243.698 52.571 244.057 52.8277 244.463 53.0144C244.874 53.201 245.313 53.2944 245.779 53.2944C246.125 53.2944 246.456 53.2384 246.773 53.1264C247.091 53.0144 247.385 52.8557 247.655 52.6504C247.931 52.4404 248.171 52.1907 248.376 51.9014C248.582 51.612 248.745 51.29 248.866 50.9354H246.787V49.6474H250.574C250.584 50.3474 250.462 51.0054 250.21 51.6214C249.963 52.2374 249.618 52.781 249.174 53.2524C248.736 53.719 248.225 54.0854 247.641 54.3514C247.058 54.6174 246.433 54.7504 245.765 54.7504ZM254.871 54.7504C254.227 54.7504 253.639 54.5847 253.107 54.2534C252.579 53.922 252.157 53.4787 251.84 52.9234C251.527 52.3634 251.371 51.745 251.371 51.0684C251.371 50.555 251.462 50.0767 251.644 49.6334C251.826 49.1854 252.075 48.7934 252.393 48.4574C252.715 48.1167 253.088 47.8507 253.513 47.6594C253.937 47.468 254.39 47.3724 254.871 47.3724C255.515 47.3724 256.1 47.538 256.628 47.8694C257.16 48.2007 257.582 48.6464 257.895 49.2064C258.212 49.7664 258.371 50.387 258.371 51.0684C258.371 51.577 258.28 52.053 258.098 52.4964C257.916 52.9397 257.664 53.3317 257.342 53.6724C257.024 54.0084 256.653 54.272 256.229 54.4634C255.809 54.6547 255.356 54.7504 254.871 54.7504ZM254.871 53.2944C255.258 53.2944 255.606 53.1917 255.914 52.9864C256.222 52.781 256.464 52.5104 256.642 52.1744C256.824 51.8337 256.915 51.465 256.915 51.0684C256.915 50.6624 256.821 50.289 256.635 49.9484C256.453 49.6077 256.208 49.337 255.9 49.1364C255.592 48.931 255.249 48.8284 254.871 48.8284C254.488 48.8284 254.14 48.931 253.828 49.1364C253.52 49.3417 253.275 49.6147 253.093 49.9554C252.915 50.296 252.827 50.667 252.827 51.0684C252.827 51.4837 252.92 51.8594 253.107 52.1954C253.293 52.5314 253.541 52.7997 253.849 53.0004C254.161 53.1964 254.502 53.2944 254.871 53.2944ZM263.177 54.5684H261.308L258.753 47.5544H260.307L262.239 52.8884L264.178 47.5544H265.725L263.177 54.5684ZM270.676 49.0244H269.206L269.199 54.5684H267.743L267.75 49.0244H266.637V47.5684H267.75L267.743 45.3704H269.199L269.206 47.5684H270.676V49.0244ZM272.276 54.7504C272.061 54.7504 271.879 54.6757 271.73 54.5264C271.585 54.377 271.513 54.195 271.513 53.9804C271.513 53.7704 271.585 53.5907 271.73 53.4414C271.879 53.292 272.061 53.2174 272.276 53.2174C272.49 53.2174 272.672 53.292 272.822 53.4414C272.971 53.5907 273.046 53.7704 273.046 53.9804C273.046 54.195 272.971 54.377 272.822 54.5264C272.672 54.6757 272.49 54.7504 272.276 54.7504ZM281.175 54.7504C280.531 54.7504 279.943 54.5847 279.411 54.2534C278.884 53.922 278.462 53.4787 278.144 52.9234C277.832 52.3634 277.675 51.745 277.675 51.0684C277.675 50.555 277.766 50.0767 277.948 49.6334C278.13 49.1854 278.38 48.7934 278.697 48.4574C279.019 48.1167 279.393 47.8507 279.817 47.6594C280.242 47.468 280.695 47.3724 281.175 47.3724C281.819 47.3724 282.405 47.538 282.932 47.8694C283.464 48.2007 283.887 48.6464 284.199 49.2064C284.517 49.7664 284.675 50.387 284.675 51.0684C284.675 51.577 284.584 52.053 284.402 52.4964C284.22 52.9397 283.968 53.3317 283.646 53.6724C283.329 54.0084 282.958 54.272 282.533 54.4634C282.113 54.6547 281.661 54.7504 281.175 54.7504ZM281.175 53.2944C281.563 53.2944 281.91 53.1917 282.218 52.9864C282.526 52.781 282.769 52.5104 282.946 52.1744C283.128 51.8337 283.219 51.465 283.219 51.0684C283.219 50.6624 283.126 50.289 282.939 49.9484C282.757 49.6077 282.512 49.337 282.204 49.1364C281.896 48.931 281.553 48.8284 281.175 48.8284C280.793 48.8284 280.445 48.931 280.132 49.1364C279.824 49.3417 279.579 49.6147 279.397 49.9554C279.22 50.296 279.131 50.667 279.131 51.0684C279.131 51.4837 279.225 51.8594 279.411 52.1954C279.598 52.5314 279.845 52.7997 280.153 53.0004C280.466 53.1964 280.807 53.2944 281.175 53.2944ZM287.728 45.9794V47.5684H289.702V49.0244H287.728V54.5684H286.272V49.0244H285.439V47.5684H286.272V45.9794C286.272 45.5967 286.366 45.249 286.552 44.9364C286.739 44.619 286.989 44.367 287.301 44.1804C287.619 43.9937 287.971 43.9004 288.358 43.9004C288.638 43.9004 288.911 43.9564 289.177 44.0684C289.443 44.1804 289.681 44.353 289.891 44.5864L288.848 45.6154C288.797 45.5314 288.725 45.4684 288.631 45.4264C288.543 45.3797 288.452 45.3564 288.358 45.3564C288.186 45.3564 288.036 45.417 287.91 45.5384C287.789 45.6597 287.728 45.8067 287.728 45.9794ZM294.242 54.5684L296.139 44.7684H297.315L299.828 51.3694L302.327 44.7684H303.503L305.407 54.5684H303.923L302.656 48.0094L300.311 54.1974H299.331L296.993 48.0094L295.726 54.5684H294.242ZM311.856 47.5684H313.312V54.5684H311.849L311.793 53.5534C311.587 53.9127 311.31 54.202 310.96 54.4214C310.61 54.6407 310.197 54.7504 309.721 54.7504C309.207 54.7504 308.724 54.6547 308.272 54.4634C307.819 54.2674 307.42 53.9967 307.075 53.6514C306.734 53.306 306.468 52.9094 306.277 52.4614C306.085 52.0087 305.99 51.5234 305.99 51.0054C305.99 50.506 306.083 50.037 306.27 49.5984C306.456 49.155 306.715 48.7677 307.047 48.4364C307.378 48.105 307.761 47.846 308.195 47.6594C308.633 47.468 309.102 47.3724 309.602 47.3724C310.11 47.3724 310.558 47.489 310.946 47.7224C311.338 47.951 311.662 48.245 311.919 48.6044L311.856 47.5684ZM309.686 53.3434C310.096 53.3434 310.456 53.243 310.764 53.0424C311.072 52.837 311.31 52.5617 311.478 52.2164C311.65 51.871 311.737 51.4884 311.737 51.0684C311.737 50.6437 311.65 50.2587 311.478 49.9134C311.305 49.568 311.065 49.295 310.757 49.0944C310.453 48.889 310.096 48.7864 309.686 48.7864C309.28 48.7864 308.909 48.889 308.573 49.0944C308.237 49.2997 307.971 49.575 307.775 49.9204C307.579 50.2657 307.481 50.6484 307.481 51.0684C307.481 51.493 307.581 51.878 307.782 52.2234C307.987 52.564 308.255 52.837 308.587 53.0424C308.923 53.243 309.289 53.3434 309.686 53.3434ZM321.063 50.1794V54.5684H319.607V50.5364C319.607 50.2237 319.53 49.939 319.376 49.6824C319.227 49.4257 319.024 49.2227 318.767 49.0734C318.515 48.9194 318.231 48.8424 317.913 48.8424C317.605 48.8424 317.323 48.9194 317.066 49.0734C316.81 49.2227 316.604 49.4257 316.45 49.6824C316.296 49.939 316.219 50.2237 316.219 50.5364V54.5684H314.763V44.0684H316.219V48.3104C316.462 48.021 316.761 47.7924 317.115 47.6244C317.47 47.4564 317.853 47.3724 318.263 47.3724C318.781 47.3724 319.253 47.4984 319.677 47.7504C320.102 48.0024 320.438 48.3407 320.685 48.7654C320.937 49.19 321.063 49.6614 321.063 50.1794ZM327.77 47.5684H329.226V54.5684H327.763L327.707 53.5534C327.502 53.9127 327.224 54.202 326.874 54.4214C326.524 54.6407 326.111 54.7504 325.635 54.7504C325.122 54.7504 324.639 54.6547 324.186 54.4634C323.733 54.2674 323.334 53.9967 322.989 53.6514C322.648 53.306 322.382 52.9094 322.191 52.4614C322 52.0087 321.904 51.5234 321.904 51.0054C321.904 50.506 321.997 50.037 322.184 49.5984C322.371 49.155 322.63 48.7677 322.961 48.4364C323.292 48.105 323.675 47.846 324.109 47.6594C324.548 47.468 325.017 47.3724 325.516 47.3724C326.025 47.3724 326.473 47.489 326.86 47.7224C327.252 47.951 327.576 48.245 327.833 48.6044L327.77 47.5684ZM325.6 53.3434C326.011 53.3434 326.37 53.243 326.678 53.0424C326.986 52.837 327.224 52.5617 327.392 52.2164C327.565 51.871 327.651 51.4884 327.651 51.0684C327.651 50.6437 327.565 50.2587 327.392 49.9134C327.219 49.568 326.979 49.295 326.671 49.0944C326.368 48.889 326.011 48.7864 325.6 48.7864C325.194 48.7864 324.823 48.889 324.487 49.0944C324.151 49.2997 323.885 49.575 323.689 49.9204C323.493 50.2657 323.395 50.6484 323.395 51.0684C323.395 51.493 323.495 51.878 323.696 52.2234C323.901 52.564 324.17 52.837 324.501 53.0424C324.837 53.243 325.203 53.3434 325.6 53.3434ZM330.623 54.5684V47.5684H332.079V48.3104C332.321 48.021 332.62 47.7924 332.975 47.6244C333.329 47.4564 333.712 47.3724 334.123 47.3724C334.384 47.3724 334.643 47.4074 334.9 47.4774L334.319 48.9474C334.137 48.8774 333.955 48.8424 333.773 48.8424C333.465 48.8424 333.182 48.9194 332.926 49.0734C332.669 49.2227 332.464 49.4257 332.31 49.6824C332.156 49.939 332.079 50.2237 332.079 50.5364V54.5684H330.623ZM340.827 47.5684H342.283V54.5684H340.82L340.764 53.5534C340.558 53.9127 340.281 54.202 339.931 54.4214C339.581 54.6407 339.168 54.7504 338.692 54.7504C338.178 54.7504 337.695 54.6547 337.243 54.4634C336.79 54.2674 336.391 53.9967 336.046 53.6514C335.705 53.306 335.439 52.9094 335.248 52.4614C335.056 52.0087 334.961 51.5234 334.961 51.0054C334.961 50.506 335.054 50.037 335.241 49.5984C335.427 49.155 335.686 48.7677 336.018 48.4364C336.349 48.105 336.732 47.846 337.166 47.6594C337.604 47.468 338.073 47.3724 338.573 47.3724C339.081 47.3724 339.529 47.489 339.917 47.7224C340.309 47.951 340.633 48.245 340.89 48.6044L340.827 47.5684ZM338.657 53.3434C339.067 53.3434 339.427 53.243 339.735 53.0424C340.043 52.837 340.281 52.5617 340.449 52.2164C340.621 51.871 340.708 51.4884 340.708 51.0684C340.708 50.6437 340.621 50.2587 340.449 49.9134C340.276 49.568 340.036 49.295 339.728 49.0944C339.424 48.889 339.067 48.7864 338.657 48.7864C338.251 48.7864 337.88 48.889 337.544 49.0944C337.208 49.2997 336.942 49.575 336.746 49.9204C336.55 50.2657 336.452 50.6484 336.452 51.0684C336.452 51.493 336.552 51.878 336.753 52.2234C336.958 52.564 337.226 52.837 337.558 53.0424C337.894 53.243 338.26 53.3434 338.657 53.3434ZM345.779 54.7014C345.411 54.678 345.051 54.6034 344.701 54.4774C344.351 54.3514 344.043 54.181 343.777 53.9664C343.516 53.747 343.32 53.4904 343.189 53.1964L344.428 52.6644C344.489 52.7904 344.594 52.914 344.743 53.0354C344.897 53.1567 345.077 53.257 345.282 53.3364C345.488 53.411 345.702 53.4484 345.926 53.4484C346.146 53.4484 346.349 53.418 346.535 53.3574C346.727 53.292 346.883 53.194 347.004 53.0634C347.126 52.9327 347.186 52.7764 347.186 52.5944C347.186 52.389 347.116 52.2304 346.976 52.1184C346.841 52.0017 346.671 51.913 346.465 51.8524C346.26 51.7917 346.055 51.7334 345.849 51.6774C345.392 51.5747 344.972 51.4347 344.589 51.2574C344.211 51.0754 343.91 50.8444 343.686 50.5644C343.462 50.2797 343.35 49.932 343.35 49.5214C343.35 49.0734 343.472 48.686 343.714 48.3594C343.957 48.028 344.274 47.7737 344.666 47.5964C345.063 47.419 345.485 47.3304 345.933 47.3304C346.493 47.3304 347.007 47.4494 347.473 47.6874C347.94 47.9254 348.297 48.252 348.544 48.6674L347.389 49.3534C347.319 49.2134 347.214 49.0874 347.074 48.9754C346.934 48.8634 346.776 48.7747 346.598 48.7094C346.421 48.6394 346.237 48.5997 346.045 48.5904C345.807 48.581 345.586 48.609 345.38 48.6744C345.18 48.735 345.019 48.833 344.897 48.9684C344.776 49.1037 344.715 49.2764 344.715 49.4864C344.715 49.6917 344.788 49.8457 344.932 49.9484C345.077 50.0464 345.259 50.1257 345.478 50.1864C345.702 50.247 345.931 50.3147 346.164 50.3894C346.58 50.52 346.969 50.681 347.333 50.8724C347.697 51.059 347.991 51.29 348.215 51.5654C348.439 51.8407 348.547 52.1767 348.537 52.5734C348.537 53.012 348.404 53.397 348.138 53.7284C347.877 54.0597 347.536 54.3117 347.116 54.4844C346.696 54.657 346.251 54.7294 345.779 54.7014ZM356.036 50.1794V54.5684H354.58V50.5364C354.58 50.2237 354.503 49.939 354.349 49.6824C354.2 49.4257 353.997 49.2227 353.74 49.0734C353.488 48.9194 353.203 48.8424 352.886 48.8424C352.578 48.8424 352.296 48.9194 352.039 49.0734C351.782 49.2227 351.577 49.4257 351.423 49.6824C351.269 49.939 351.192 50.2237 351.192 50.5364V54.5684H349.736V44.0684H351.192V48.3104C351.435 48.021 351.733 47.7924 352.088 47.6244C352.443 47.4564 352.825 47.3724 353.236 47.3724C353.754 47.3724 354.225 47.4984 354.65 47.7504C355.075 48.0024 355.411 48.3407 355.658 48.7654C355.91 49.19 356.036 49.6614 356.036 50.1794ZM361.129 49.0244H359.659L359.652 54.5684H358.196L358.203 49.0244H357.09V47.5684H358.203L358.196 45.3704H359.652L359.659 47.5684H361.129V49.0244ZM362.382 54.5684V47.5684H363.838V48.3104C364.081 48.021 364.38 47.7924 364.734 47.6244C365.089 47.4564 365.472 47.3724 365.882 47.3724C366.144 47.3724 366.403 47.4074 366.659 47.4774L366.078 48.9474C365.896 48.8774 365.714 48.8424 365.532 48.8424C365.224 48.8424 364.942 48.9194 364.685 49.0734C364.429 49.2227 364.223 49.4257 364.069 49.6824C363.915 49.939 363.838 50.2237 363.838 50.5364V54.5684H362.382ZM372.586 47.5684H374.042V54.5684H372.579L372.523 53.5534C372.318 53.9127 372.04 54.202 371.69 54.4214C371.34 54.6407 370.927 54.7504 370.451 54.7504C369.938 54.7504 369.455 54.6547 369.002 54.4634C368.55 54.2674 368.151 53.9967 367.805 53.6514C367.465 53.306 367.199 52.9094 367.007 52.4614C366.816 52.0087 366.72 51.5234 366.72 51.0054C366.72 50.506 366.814 50.037 367 49.5984C367.187 49.155 367.446 48.7677 367.777 48.4364C368.109 48.105 368.491 47.846 368.925 47.6594C369.364 47.468 369.833 47.3724 370.332 47.3724C370.841 47.3724 371.289 47.489 371.676 47.7224C372.068 47.951 372.393 48.245 372.649 48.6044L372.586 47.5684ZM370.416 53.3434C370.827 53.3434 371.186 53.243 371.494 53.0424C371.802 52.837 372.04 52.5617 372.208 52.2164C372.381 51.871 372.467 51.4884 372.467 51.0684C372.467 50.6437 372.381 50.2587 372.208 49.9134C372.036 49.568 371.795 49.295 371.487 49.0944C371.184 48.889 370.827 48.7864 370.416 48.7864C370.01 48.7864 369.639 48.889 369.303 49.0944C368.967 49.2997 368.701 49.575 368.505 49.9204C368.309 50.2657 368.211 50.6484 368.211 51.0684C368.211 51.493 368.312 51.878 368.512 52.2234C368.718 52.564 368.986 52.837 369.317 53.0424C369.653 53.243 370.02 53.3434 370.416 53.3434ZM375.299 55.3524C375.654 54.9557 375.983 54.4867 376.286 53.9454C376.594 53.3994 376.841 52.7997 377.028 52.1464C377.219 51.4884 377.32 50.793 377.329 50.0604C377.324 49.687 377.285 49.295 377.21 48.8844C377.135 48.469 377.033 48.0537 376.902 47.6384C376.771 47.223 376.622 46.8287 376.454 46.4554C376.286 46.082 376.104 45.7507 375.908 45.4614C375.712 45.1674 375.509 44.9364 375.299 44.7684H376.755C377.002 44.913 377.229 45.1324 377.434 45.4264C377.644 45.7204 377.833 46.0587 378.001 46.4414C378.169 46.824 378.311 47.2277 378.428 47.6524C378.545 48.077 378.633 48.497 378.694 48.9124C378.755 49.3277 378.785 49.7104 378.785 50.0604C378.785 50.7697 378.715 51.4394 378.575 52.0694C378.44 52.6994 378.223 53.2897 377.924 53.8404C377.625 54.3864 377.236 54.8904 376.755 55.3524H375.299Z" fill="#3D3D3D"></path>
<defs>
<clipPath id="clip0_3135_96">
<rect width="51.4161" height="62.3896" fill="white" transform="translate(13.0525 6.79517)"></rect>
</clipPath>
</defs>
</svg>